<?xml version="1.0" encoding="UTF-8"?>
<svg id="Layer_1" data-name="Layer 1" xmlns="http://www.w3.org/2000/svg" viewBox="0 0 1537.389 1080">
  <defs>
    <style>
      .cls-1 {
        fill: #fff;
      }
    </style>
  </defs>
  <g>
    <path class="cls-1" d="M408.6945,369c59.0427,8.97,85.3651,35.0295,144,36,16.2102.2683,31.3888-1.4448,45.33-4.3259,8.89-19.5579,17.78-39.116,26.67-58.6741h-360v45c62.7792-23.5156,111.1627-22.9888,144-18Z"/>
    <path class="cls-1" d="M660.6945,738v-360l-189,360h189Z"/>
    <path class="cls-1" d="M444.6945,603c-46.2778-12.3281-63.0493-38.6997-108-45-29.4091-4.1221-54.9044,2.5867-72,9v171h180c19.7164-43.3762,39.4329-86.7524,59.1494-130.1287-24.8662,2.0725-44.5348-.978-59.1494-4.8713Z"/>
  </g>
  <g>
    <path class="cls-1" d="M712.1735,474.9003c2.7121.2254,6.1025.4518,9.7194.4518,11.5268,0,14.0124-2.9386,14.0124-16.9521v-113.4626h30.7392v121.3736c0,30.2873-13.3352,37.0682-38.1972,37.0682-5.6507,0-11.5268,0-16.2738-.4529v-28.0259Z"/>
    <path class="cls-1" d="M800.0947,344.9375h37.2935l27.3476,158.2153h-29.8344l-3.164-22.3763h-26.2186l-3.164,22.3763h-29.8355l27.5752-158.2153ZM808.2311,460.6603h20.7944l-9.0411-64.4158-1.1301-9.2665h-.4518l-1.1301,9.2665-9.0411,64.4158Z"/>
    <path class="cls-1" d="M913.1033,480.3246c7.0073,0,10.3977-3.6158,11.3014-16.2738.2265-5.1978.4518-14.6907.4518-23.7318v-95.3814h30.7392v103.7443c0,40.0057-11.9786,57.4096-42.4924,57.4096-30.2862,0-42.2659-17.4039-42.2659-57.4096v-103.7443h30.7392v95.3814c0,9.0411.2265,18.5341.4518,23.7318.9048,12.658,4.2952,16.2738,11.0749,16.2738Z"/>
    <path class="cls-1" d="M974.5782,344.9375h29.6079l23.733,77.7521,2.4856,10.8485h.4518v-88.6006h29.609v158.2153h-29.3826l-23.9583-77.751-2.4856-10.8496h-.4529v88.6006h-29.6079v-158.2153Z"/>
    <path class="cls-1" d="M1077.4144,424.0451c0-31.191,1.8084-52.889,7.0062-63.7375,5.8772-12.2051,19.8907-18.3076,35.938-18.3076s30.2862,6.1025,35.9369,18.3076c5.1989,10.8485,7.2327,32.5465,7.2327,63.7375s-2.0338,52.889-7.2327,63.7386c-5.6507,12.2051-19.8896,18.3076-35.9369,18.3076s-30.0609-6.1025-35.938-18.3076c-5.1978-10.8496-7.0062-32.5476-7.0062-63.7386ZM1120.3586,480.7764c5.8761,0,9.0411-2.4856,10.3966-10.6231,1.1301-7.458,1.582-26.6704,1.582-46.1082s-.4518-38.649-1.582-46.1082c-1.3555-8.1363-4.5206-10.6231-10.3966-10.6231s-8.8147,2.4868-10.1713,10.6231c-1.3566,7.4592-1.8084,26.6704-1.8084,46.1082s.4518,38.6501,1.8084,46.1082c1.3566,8.1375,4.2941,10.6231,10.1713,10.6231Z"/>
    <path class="cls-1" d="M1168.5017,474.9003c2.7121.2254,6.1025.4518,9.7194.4518,11.5268,0,14.0124-2.9386,14.0124-16.9521v-113.4626h30.7392v121.3736c0,30.2873-13.3352,37.0682-38.1972,37.0682-5.6507,0-11.5268,0-16.2738-.4529v-28.0259Z"/>
    <path class="cls-1" d="M1241.9565,344.9375h30.7381v158.2153h-30.7381v-158.2153Z"/>
    <path class="cls-1" d="M719.1809,579.7847h29.6079v59.8964l23.28-59.8964h31.8693l-23.28,54.924,24.4102,103.2913h-30.0609l-15.5955-68.0327-10.6231,27.5752v40.4575h-29.6079v-158.2153Z"/>
    <path class="cls-1" d="M834.4475,579.7847h37.2935l27.3476,158.2153h-29.8344l-3.164-22.3763h-26.2186l-3.164,22.3763h-29.8355l27.5752-158.2153ZM842.5838,695.5076h20.7944l-9.0411-64.4158-1.1301-9.2665h-.4518l-1.1301,9.2665-9.0411,64.4158Z"/>
    <path class="cls-1" d="M909.4852,579.7847h30.7381v158.2153h-30.7381v-158.2153Z"/>
    <path class="cls-1" d="M959.6588,579.7847h33.4502c38.1983,0,51.5335,11.3014,51.5335,41.8141,0,17.1775-3.8423,29.8355-16.2738,36.3899v.2254c12.4315,3.8423,14.9172,12.658,14.9172,27.5752,0,19.2113,0,30.2862,1.582,50.8541v1.3566h-30.9645c-.9037-20.1161-.9037-34.1296-.9037-47.013,0-11.3003-2.2603-14.9172-14.24-14.9172h-9.0411v61.9302h-30.0597v-158.2153ZM996.4994,651.6597c13.7882,0,17.6304-5.6507,17.6304-23.5065,0-16.7245-3.8423-22.3752-17.6304-22.3752h-6.7808v45.8817h6.7808Z"/>
    <path class="cls-1" d="M1061.8189,579.7847h74.586v26.6704h-45.4299v34.3561h33.2248v26.2186h-33.2248v43.8479h45.4299v27.1223h-74.586v-158.2153ZM1085.0989,540.4574h27.5741v26.8969h-27.5741v-26.8969Z"/>
  </g>
</svg>