<?xml version="1.0" encoding="UTF-8"?>
<svg id="Layer_1" data-name="Layer 1" xmlns="http://www.w3.org/2000/svg" viewBox="0 0 1080 1080">
  <defs>
    <style>
      .cls-1 {
        fill: #ee1d45;
      }

      .cls-2 {
        fill: #fff;
      }
    </style>
  </defs>
  <path class="cls-1" d="M738,314.6667v36.6699c-62.88,119.7803-125.77,239.5498-188.65,359.3301h-27.05c19.62-43.1602,39.23-86.3101,58.85-129.46-24.87,2.0698-44.54-.98-59.15-4.8701-46.28-12.3301-63.05-38.7002-108-45-29.41-4.1299-54.9,2.5801-72,9v-180c62.78-23.52,111.16-22.9897,144-18,59.04,8.9702,85.37,35.0303,144,36,16.21.2603,31.39-1.4502,45.33-4.3301,8.89-19.5566,17.78-39.1133,26.67-58.6699,12-.2231,24-.4468,36-.6699Z"/>
  <g>
    <path class="cls-2" d="M342,264.5588c1.9161.1592,4.3114.3192,6.8666.3192,8.1435,0,9.8996-2.0761,9.8996-11.9764v-80.1597h21.7168v85.7487c0,21.3976-9.4211,26.1881-26.9858,26.1881-3.9921,0-8.1435,0-11.4972-.32v-19.7999Z"/>
    <path class="cls-2" d="M404.115,172.742h26.3473l19.3207,111.7768h-21.0776l-2.2353-15.8086h-18.5231l-2.2353,15.8086h-21.0783l19.4815-111.7768ZM409.8633,254.4985h14.6909l-6.3874-45.5088-.7984-6.5466h-.3192l-.7984,6.5466-6.3874,45.5088Z"/>
    <path class="cls-2" d="M483.9539,268.391c4.9506,0,7.3459-2.5545,7.9843-11.4972.16-3.6721.3192-10.3788.3192-16.7662v-67.3856h21.7168v73.2938c0,28.2634-8.4627,40.5591-30.0203,40.5591-21.3968,0-29.8603-12.2956-29.8603-40.5591v-73.2938h21.7168v67.3856c0,6.3874.16,13.0941.3192,16.7662.6392,8.9427,3.0345,11.4972,7.8243,11.4972Z"/>
    <path class="cls-2" d="M527.3851,172.742h20.9176l16.767,54.9308,1.7561,7.6643h.3192v-62.595h20.9183v111.7768h-20.7583l-16.9262-54.93-1.7561-7.6651h-.32v62.595h-20.9176v-111.7768Z"/>
    <path class="cls-2" d="M600.0374,228.6304c0-22.036,1.2776-37.3653,4.9498-45.0296,4.1521-8.6227,14.0525-12.9341,25.3897-12.9341s21.3968,4.3114,25.3889,12.9341c3.6729,7.6643,5.1098,22.9936,5.1098,45.0296s-1.4369,37.3653-5.1098,45.0304c-3.9921,8.6227-14.0517,12.9341-25.3889,12.9341s-21.2376-4.3114-25.3897-12.9341c-3.6721-7.6651-4.9498-22.9944-4.9498-45.0304ZM630.3769,268.7102c4.1514,0,6.3874-1.7561,7.3451-7.5051.7984-5.269,1.1176-18.8423,1.1176-32.5748s-.3192-27.305-1.1176-32.5748c-.9576-5.7482-3.1937-7.5051-7.3451-7.5051s-6.2274,1.7569-7.1859,7.5051c-.9584,5.2698-1.2776,18.8423-1.2776,32.5748s.3192,27.3058,1.2776,32.5748c.9584,5.749,3.0337,7.5051,7.1859,7.5051Z"/>
    <path class="cls-2" d="M664.3893,264.5588c1.9161.1592,4.3114.3192,6.8666.3192,8.1435,0,9.8996-2.0761,9.8996-11.9764v-80.1597h21.7168v85.7487c0,21.3976-9.4211,26.1881-26.9858,26.1881-3.9921,0-8.1435,0-11.4972-.32v-19.7999Z"/>
    <path class="cls-2" d="M716.284,172.742h21.716v111.7768h-21.716v-111.7768Z"/>
  </g>
  <path class="cls-2" d="M342,759.1664h28.1018v56.8495l22.0958-56.8495h30.2481l-22.0958,52.13,23.1684,98.0369h-28.5317l-14.8022-64.5719-10.0827,26.1725v38.3994h-28.1018v-150.1669Z"/>
  <path class="cls-2" d="M451.403,759.1664h35.3964l25.9565,150.1669h-28.3167l-3.003-21.2381h-24.8849l-3.003,21.2381h-28.3178l26.1725-150.1669ZM459.1255,869.0025h19.7366l-8.5812-61.139-1.0727-8.7951h-.4288l-1.0727,8.7951-8.5812,61.139Z"/>
  <path class="cls-2" d="M522.6237,759.1664h29.1744v150.1669h-29.1744v-150.1669Z"/>
  <path class="cls-2" d="M570.245,759.1664h31.7486c36.2552,0,48.912,10.7265,48.912,39.687,0,16.3037-3.6468,28.3178-15.446,34.5387v.2139c11.7992,3.6468,14.1584,12.0141,14.1584,26.1725,0,18.234,0,28.7456,1.5015,48.2672v1.2876h-29.3894c-.8577-19.0928-.8577-32.3934-.8577-44.6214,0-10.7255-2.1453-14.1584-13.5156-14.1584h-8.5812v58.7798h-28.5306v-150.1669ZM605.2115,827.3851c13.0868,0,16.7336-5.3633,16.7336-22.3107,0-15.8738-3.6468-21.237-16.7336-21.237h-6.4359v43.5477h6.4359Z"/>
  <path class="cls-2" d="M667.2082,759.1664h70.7918v25.3137h-43.1189v32.6084h31.5347v24.8849h-31.5347v41.6174h43.1189v25.7426h-70.7918v-150.1669ZM689.304,721.8396h26.1714v25.5287h-26.1714v-25.5287Z"/>
</svg>